:version 1.10
:name ASF
:units
  mass 1
  length 1
  angle deg
:documentation
  ASF file generated by Kaydara
:root
  axis xyz
  order  tx ty tz rx ry rz
  position 0 0 0
  orientation 0 0 0
:bonedata
  begin
    id 1
    name lfemurDummy
    direction 0.61522 -0.761478 0.204097
    length 5.68318
    axis 0 -0 0 xyz
  end
  begin
    id 2
    name lfemur
    direction 0.34202 -0.939693 -5.84747e-008
    length 16.9147
    axis 0 -0 20 xyz
    dof rx ry rz
    limits( -inf , inf )
( -inf , inf )
( -inf , inf )

  end
  begin
    id 3
    name ltibia
    direction 0.34202 -0.939693 1.20839e-009
    length 18.0532
    axis 0 -0 20 xyz
    dof rz ry rx
    limits( -inf , inf )
( -inf , inf )
( -inf , inf )

  end
  begin
    id 4
    name lfoot
    direction 0.0841971 -0.23133 0.969225
    length 5.23822
    axis -90 7.62852e-016 20 xyz
    dof ry rx rz
    limits( -inf , inf )
( -inf , inf )
( -inf , inf )

  end
  begin
    id 5
    name ltoes
    direction 0 0 0
    length 0
    axis 0 0 0 xyz
    dof rz ry rx
    limits( -inf , inf )
( -inf , inf )
( -inf , inf )

  end
  begin
    id 6
    name rfemurDummy
    direction -0.625247 -0.75382 0.202044
    length 5.74091
    axis 0 -0 0 xyz
  end
  begin
    id 7
    name rfemur
    direction -0.34202 -0.939693 -1.47013e-008
    length 16.4922
    axis 0 -0 -20 xyz
    dof rx ry rz
    limits( -inf , inf )
( -inf , inf )
( -inf , inf )

  end
  begin
    id 8
    name rtibia
    direction -0.34202 -0.939693 -7.74345e-010
    length 18.2421
    axis 0 -0 -20 xyz
    dof rz ry rx
    limits( -inf , inf )
( -inf , inf )
( -inf , inf )

  end
  begin
    id 9
    name rfoot
    direction -0.124331 -0.341598 0.931586
    length 5.45787
    axis -90 -7.62852e-016 -20 xyz
    dof ry rx rz
    limits( -inf , inf )
( -inf , inf )
( -inf , inf )

  end
  begin
    id 10
    name rtoes
    direction 0 0 0
    length 0
    axis 0 0 0 xyz
    dof rz ry rx
    limits( -inf , inf )
( -inf , inf )
( -inf , inf )

  end
  begin
    id 11
    name lowerbackDummy
    direction 0 0 0
    length 0
    axis 0 -0 0 xyz
  end
  begin
    id 12
    name lowerback
    direction -0.0218484 0.994884 -0.0986304
    length 4.45607
    axis 0 -0 0 xyz
    dof rx ry rz
    limits( -inf , inf )
( -inf , inf )
( -inf , inf )

  end
  begin
    id 13
    name upperback
    direction -0.00973057 0.999717 -0.0217111
    length 4.47449
    axis 0 -0 0 xyz
    dof rx ry rz
    limits( -inf , inf )
( -inf , inf )
( -inf , inf )

  end
  begin
    id 14
    name thorax
    direction -0.000928171 0.999699 0.0245198
    length 4.50973
    axis 0 -0 0 xyz
    dof rx ry rz
    limits( -inf , inf )
( -inf , inf )
( -inf , inf )

  end
  begin
    id 15
    name rclavicle
    direction -0.9009 0.425937 -0.0834055
    length 7.28587
    axis 0 -0 0 xyz
    dof rx ry rz
    limits( -inf , inf )
( -inf , inf )
( -inf , inf )

  end
  begin
    id 16
    name rhumerus
    direction -1 -2.23604e-007 -1.42637e-007
    length 13.5704
    axis 180 30 90 xyz
    dof rx ry rz
    limits( -inf , inf )
( -inf , inf )
( -inf , inf )

  end
  begin
    id 17
    name rradius
    direction -1 5.68281e-008 -4.4952e-007
    length 8.06782
    axis 180 30 90 xyz
    dof rz ry rx
    limits( -inf , inf )
( -inf , inf )
( -inf , inf )

  end
  begin
    id 18
    name rwrist
    direction -1 1.51393e-007 1.38143e-007
    length 4.03391
    axis -90 -90 0 xyz
    dof rz rx ry
    limits( -inf , inf )
( -inf , inf )
( -inf , inf )

  end
  begin
    id 19
    name rthumb
    direction 0 0 0
    length 0
    axis 0 0 0 xyz
    dof ry rx rz
    limits( -inf , inf )
( -inf , inf )
( -inf , inf )

  end
  begin
    id 20
    name rhand
    direction -1 -3.34077e-007 -5.59631e-007
    length 1.29744
    axis -90 -90 0 xyz
    dof ry rx rz
    limits( -inf , inf )
( -inf , inf )
( -inf , inf )

  end
  begin
    id 21
    name rfingers
    direction 0 0 0
    length 0
    axis 0 0 0 xyz
    dof rz ry rx
    limits( -inf , inf )
( -inf , inf )
( -inf , inf )

  end
  begin
    id 22
    name lclavicle
    direction 0.940017 0.332249 -0.0773232
    length 8.29589
    axis 0 -0 0 xyz
    dof rx ry rz
    limits( -inf , inf )
( -inf , inf )
( -inf , inf )

  end
  begin
    id 23
    name lhumerus
    direction 1 7.41158e-008 -1.44768e-008
    length 12.0042
    axis 180 -30 -90 xyz
    dof rx ry rz
    limits( -inf , inf )
( -inf , inf )
( -inf , inf )

  end
  begin
    id 24
    name lradius
    direction 1 -1.32972e-007 3.10821e-007
    length 8.1902
    axis 180 -30 -90 xyz
    dof rz ry rx
    limits( -inf , inf )
( -inf , inf )
( -inf , inf )

  end
  begin
    id 25
    name lwrist
    direction 1 3.08957e-007 4.01394e-007
    length 4.09509
    axis -90 90 0 xyz
    dof rz rx ry
    limits( -inf , inf )
( -inf , inf )
( -inf , inf )

  end
  begin
    id 26
    name lthumb
    direction 0 0 0
    length 0
    axis 0 0 0 xyz
    dof ry rx rz
    limits( -inf , inf )
( -inf , inf )
( -inf , inf )

  end
  begin
    id 27
    name lhand
    direction 1 -1.64125e-007 -6.99514e-007
    length 1.37229
    axis -90 90 0 xyz
    dof ry rx rz
    limits( -inf , inf )
( -inf , inf )
( -inf , inf )

  end
  begin
    id 28
    name lfingers
    direction 0 0 0
    length 0
    axis 0 0 0 xyz
    dof rz ry rx
    limits( -inf , inf )
( -inf , inf )
( -inf , inf )

  end
  begin
    id 29
    name lowerneck
    direction -0.030798 0.998024 0.0547665
    length 3.93918
    axis 0 -0 0 xyz
    dof rx ry rz
    limits( -inf , inf )
( -inf , inf )
( -inf , inf )

  end
  begin
    id 30
    name upperneck
    direction 0.0531588 0.996611 -0.0627736
    length 3.95491
    axis 0 -0 0 xyz
    dof rx ry rz
    limits( -inf , inf )
( -inf , inf )
( -inf , inf )

  end
  begin
    id 31
    name head
    direction 0 0 0
    length 0
    axis 0 0 0 xyz
    dof rx ry rz
    limits( -inf , inf )
( -inf , inf )
( -inf , inf )

  end
:hierarchy
  begin
    root lfemurDummy rfemurDummy lowerbackDummy
    lfemurDummy lfemur
    lfemur ltibia
    ltibia lfoot
    lfoot ltoes
    rfemurDummy rfemur
    rfemur rtibia
    rtibia rfoot
    rfoot rtoes
    lowerbackDummy lowerback
    lowerback upperback
    upperback thorax
    thorax rclavicle lclavicle lowerneck
    rclavicle rhumerus
    rhumerus rradius
    rradius rwrist
    rwrist rthumb rhand
    rhand rfingers
    lclavicle lhumerus
    lhumerus lradius
    lradius lwrist
    lwrist lthumb lhand
    lhand lfingers
    lowerneck upperneck
    upperneck head
  end

:SAMPLES-PER-SECOND 30
:FULLY-SPECIFIED
:DEGREES
46
root  2.889977853 35.19333366 2.594888867 -15.00500488 5.656997681 8.583007813
lowerback  9.23816967 2.398819923 7.029839993
upperback  2.350219965 4.065470219 6.494329929
thorax  -2.716589928 1.999349952 2.36552
lowerneck  -3.636420012 -0.6652590036 -4.098730087
upperneck  15.68309975 -0.005599089898 -3.241369963
head  5.333199978 -0.4234589934 -0.3308979869
lclavicle  0 -9.442270133e-015 7.951389973e-016
lhumerus  -1.900509953 -21.79669952 90.06439972
lradius  2.608533792e-031 -2.379999053e-031 137.6230011
lwrist  -1.059337512e-030 -0 2.297230005
lhand  -1.496451383e-031 -27.76390076 20.11240005
lfingers  90 7.125020027 -90
lthumb  89.89689403 5.08795885 91.16245106
rclavicle  0 -9.442270133e-015 7.951389973e-016
rhumerus  15.09770012 24.45879936 -87.17900085
rradius  -2.665257058e-031 2.316300683e-031 139.0070038
rwrist  7.062250077e-031 -0 -7.78278017
rhand  -7.920061211e-032 -33.2840004 9.303460121
rfingers  -90 -7.125020027 -90
rthumb  -92.93752616 -24.25625642 -97.11982154
rfemur  7.916500092 15.41829967 5.08743
rtibia  -0 0 67.9434967
rfoot  -5.107317775e-032 -30.20490074 -3.71284008
rtoes  5.373923086 19.29304026 -105.8922705
lfemur  -27.18510056 7.387929916 -20.02639961
ltibia  -0 0 68.85959625
lfoot  -0 -14.91119957 -16.11709976
ltoes  -4.250644065 -19.5611806 -102.515957
47
root  2.940288867 35.18133389 2.517400013 -14.70501709 4.511001587 8.708007812
lowerback  9.731960297 2.153330088 6.64688015
upperback  2.618570089 3.738519907 6.656879902
thorax  -2.747750044 1.840690017 2.76967001
lowerneck  -3.819479942 -0.3147279918 -4.181550026
upperneck  15.19309998 0.4896309972 -3.412820101
head  5.211480141 -0.1885109991 -0.3418590128
lclavicle  0 -9.442270133e-015 7.951389973e-016
lhumerus  -1.73616004 -21.43009949 90.37310028
lradius  2.601002272e-031 -2.388227631e-031 137.4420013
lwrist  -1.412450015e-030 -0 2.443680048
lhand  -1.496451383e-031 -27.76390076 20.11240005
lfingers  90 7.125020027 -90
lthumb  89.89689403 5.08795885 91.16245106
rclavicle  0 -9.442270133e-015 7.951389973e-016
rhumerus  14.55490017 24.76759911 -87.18759918
rradius  -2.667317575e-031 2.313927611e-031 139.0579987
rwrist  7.062250077e-031 -0 -7.959879875
rhand  -7.920061211e-032 -33.2840004 9.303460121
rfingers  -90 -7.125020027 -90
rthumb  -92.93752616 -24.25625642 -97.11982154
rfemur  7.211430073 15.82069969 4.563630104
rtibia  -0 0 67.57520294
rfoot  -5.144271006e-032 -30.90460014 -3.72322011
rtoes  5.373923086 19.29304026 -105.8922705
lfemur  -27.44709969 8.568249702 -20.25279999
ltibia  -0 0 68.68250275
lfoot  -0 -15.4843998 -15.07740021
ltoes  -4.250644065 -19.5611806 -102.515957
48
root  2.993622164 35.22999981 2.43977787 -14.41101074 3.399993896 8.932983398
lowerback  10.35070038 1.905719995 6.109920025
upperback  2.780479908 3.410249949 6.73390007
thorax  -2.956739902 1.676759958 3.169059992
lowerneck  -3.711080074 0.04395550117 -4.120610237
upperneck  14.63519955 0.9636579752 -3.608649969
head  5.019820213 0.04900090024 -0.3856149912
lclavicle  0 -9.442270133e-015 7.951389973e-016
lhumerus  -1.68701005 -20.97839928 90.46559906
lradius  2.59499191e-031 -2.394756986e-031 137.2980042
lwrist  -1.059337512e-030 -1.765562519e-031 3.130110025
lhand  -1.496451383e-031 -27.76390076 20.11240005
lfingers  90 7.125020027 -90
lthumb  89.89689403 5.08795885 91.16245106
rclavicle  0 -9.442270133e-015 7.951389973e-016
rhumerus  14.01519966 24.88570023 -87.104599
rradius  -2.667398301e-031 2.313834554e-031 139.0599976
rwrist  1.412450015e-030 -1.765562519e-031 -7.610229969
rhand  -7.920061211e-032 -33.2840004 9.303460121
rfingers  -90 -7.125020027 -90
rthumb  -92.93752616 -24.25625642 -97.11982154
rfemur  6.456779957 16.0326004 3.844769955
rtibia  -0 0 67.12259674
rfoot  -5.175960119e-032 -31.48570061 -3.771090031
rtoes  5.373923086 19.29304026 -105.8922705
lfemur  -27.63879967 9.765250206 -20.7166996
ltibia  -0 0 68.43560028
lfoot  -0 -15.87590027 -13.61530018
ltoes  -4.250644065 -19.5611806 -102.515957
49
root  3.046133387 35.30044556 2.363733419 -14.16900635 2.199005127 8.856994629
lowerback  10.9843998 1.717450023 6.102680206
upperback  2.888420105 3.212519884 6.690489769
thorax  -3.188679934 1.573079944 3.135230064
lowerneck  -3.417439938 0.3266189992 -3.892110109
upperneck  14.10350037 1.277830005 -3.581540108
head  4.804800034 0.2327259928 -0.3982119858
lclavicle  0 -9.442270133e-015 7.951389973e-016
lhumerus  -1.727069974 -21.02860069 90.51560211
lradius  2.588587823e-031 -2.401677981e-031 137.1450043
lwrist  -1.059337512e-030 -1.765562519e-031 3.974129915
lhand  -1.496451383e-031 -27.76390076 20.11240005
lfingers  90 7.125020027 -90
lthumb  89.89689403 5.08795885 91.16245106
rclavicle  0 -9.442270133e-015 7.951389973e-016
rhumerus  13.53890038 24.48220062 -86.94750214
rradius  -2.666469455e-031 2.314904897e-031 139.0370026
rwrist  0 -0 -6.987430096
rhand  -7.920061211e-032 -33.2840004 9.303460121
rfingers  -90 -7.125020027 -90
rthumb  -92.93752616 -24.25625642 -97.11982154
rfemur  5.690480232 16.12380028 3.474149942
rtibia  -0 0 66.63300323
rfoot  -5.196159296e-032 -31.84749985 -3.7683599
rtoes  5.373923086 19.29304026 -105.8922705
lfemur  -27.88129997 10.9296999 -20.88969994
ltibia  -0 0 68.15589905
lfoot  -0 -16.52120018 -11.13379955
ltoes  -4.250644065 -19.5611806 -102.515957
50
root  3.095866751 35.41800131 2.28708898 -13.9329834 0.8930053711 8.65802002
lowerback  11.48490047 1.546399951 6.204160213
upperback  3.020560026 3.031599998 6.619470119
thorax  -3.313800097 1.478919983 3.016659975
lowerneck  -2.802769899 0.5844330192 -3.501600027
upperneck  13.01189995 1.508589983 -3.534169912
head  4.839980125 0.4056810141 -0.5061990023
lclavicle  0 -9.442270133e-015 7.951389973e-016
lhumerus  -1.850350022 -21.21759987 90.52069855
lradius  2.582753403e-031 -2.407951182e-031 137.0059967
lwrist  -1.059337512e-030 -1.765562519e-031 4.711110115
lhand  -1.496451383e-031 -27.76390076 20.11240005
lfingers  90 7.125020027 -90
lthumb  89.89689403 5.08795885 91.16245106
rclavicle  0 -9.442270133e-015 7.951389973e-016
rhumerus  12.91629982 24.3281002 -86.69219971
rradius  -2.671996733e-031 2.308522795e-031 139.173996
rwrist  7.062250077e-031 -1.765562519e-031 -6.719500065
rhand  -7.920061211e-032 -33.2840004 9.303460121
rfingers  -90 -7.125020027 -90
rthumb  -92.93752616 -24.25625642 -97.11982154
rfemur  4.911950111 16.22559929 3.301539898
rtibia  -0 0 66.05970001
rfoot  -5.203132334e-032 -31.97089958 -3.745320082
rtoes  5.373923086 19.29304026 -105.8922705
lfemur  -28.06459999 11.98219967 -20.92650032
ltibia  -0 0 67.71849823
lfoot  -0 -17.04710007 -8.598690033
ltoes  -4.250644065 -19.5611806 -102.515957
51
root  3.149955479 35.56000116 2.197428951 -13.60302734 -0.328994751 8.468994141
lowerback  11.30130005 1.291839957 6.083370209
upperback  3.424710035 2.619379997 6.627049923
thorax  -2.788759947 1.285470009 3.157720089
lowerneck  -1.89684999 0.8899139762 -3.14470005
upperneck  11.96189976 1.811059952 -3.637099981
head  4.275690079 0.6006519794 -0.58683002
lclavicle  0 -9.442270133e-015 7.951389973e-016
lhumerus  -1.632400036 -21.11420059 90.31549835
lradius  2.57669353e-031 -2.414434611e-031 136.8619995
lwrist  -7.062250077e-031 -1.765562519e-031 5.152530193
lhand  -1.496451383e-031 -27.76390076 20.11240005
lfingers  90 7.125020027 -90
lthumb  89.89689403 5.08795885 91.16245106
rclavicle  0 -9.442270133e-015 7.951389973e-016
rhumerus  12.51749992 24.48990059 -86.25939941
rradius  -2.673929946e-031 2.306283304e-031 139.2220001
rwrist  7.062250077e-031 -1.765562519e-031 -6.442329884
rhand  -7.920061211e-032 -33.2840004 9.303460121
rfingers  -90 -7.125020027 -90
rthumb  -92.93752616 -24.25625642 -97.11982154
rfemur  4.041460037 16.17720032 3.057709932
rtibia  -0 0 65.42009735
rfoot  -1.038725416e-031 -31.80249977 -3.644279957
rtoes  5.373923086 19.29304026 -105.8922705
lfemur  -28.26280022 12.62870026 -20.98360062
ltibia  -0 0 67.15750122
lfoot  9.2456465e-032 -17.29100037 -6.860839844
ltoes  -4.250644065 -19.5611806 -102.515957
52
root  3.21544437 35.73599988 2.121006598 -13.23498535 -1.464996338 8.443969727
lowerback  11.06110001 0.9749540091 5.660590172
upperback  4.188350201 2.056299925 6.682919979
thorax  -1.865010023 1.021610022 3.53915
lowerneck  -2.785480022 1.269150019 -3.170700073
upperneck  11.59869957 2.341520071 -3.579299927
head  4.321370125 0.8605589867 -0.5336629748
lclavicle  0 -9.442270133e-015 7.951389973e-016
lhumerus  -0.4945519865 -20.58060074 89.80139923
lradius  2.572433493e-031 -2.418972915e-031 136.7610016
lwrist  -7.062250077e-031 1.765562519e-031 5.453770161
lhand  -1.496451383e-031 -27.76390076 20.11240005
lfingers  90 7.125020027 -90
lthumb  89.89689403 5.08795885 91.16245106
rclavicle  0 -9.442270133e-015 7.951389973e-016
rhumerus  12.95330048 24.39299965 -85.43530273
rradius  -2.659670377e-031 2.322713397e-031 138.8690033
rwrist  7.062250077e-031 -1.765562519e-031 -6.157050133
rhand  -7.920061211e-032 -33.2840004 9.303460121
rfingers  -90 -7.125020027 -90
rthumb  -92.93752616 -24.25625642 -97.11982154
rfemur  3.16008997 16.02930069 2.560739994
rtibia  -0 0 64.66989899
rfoot  -5.175484388e-032 -31.47710037 -3.581059933
rtoes  5.373923086 19.29304026 -105.8922705
lfemur  -28.3125 12.76589966 -21.17740059
ltibia  -0 0 66.41649628
lfoot  4.626855785e-032 -17.45070076 -5.281680107
ltoes  -4.250644065 -19.5611806 -102.515957
53
root  3.290533456 35.95577751 2.066368944 -12.85601807 -2.76600647 8.478027344
lowerback  10.84309959 0.801388979 5.057630062
upperback  4.739749908 1.692330003 6.813950062
thorax  -1.181990027 0.8421469927 4.069839954
lowerneck  -3.178109884 1.609050035 -3.190010071
upperneck  11.38580036 2.808559895 -3.581650019
head  4.323870182 1.089540005 -0.506115973
lclavicle  0 -9.442270133e-015 7.951389973e-016
lhumerus  0.2460590005 -20.41880035 89.86620331
lradius  2.56066637e-031 -2.431425873e-031 136.4830017
lwrist  -7.062250077e-031 -0 5.220419884
lhand  -1.496451383e-031 -27.76390076 20.11240005
lfingers  90 7.125020027 -90
lthumb  89.89689403 5.08795885 91.16245106
rclavicle  0 -9.442270133e-015 7.951389973e-016
rhumerus  12.96539974 24.23430061 -84.58239746
rradius  -2.637415441e-031 2.347953114e-031 138.322998
rwrist  7.062250077e-031 -1.765562519e-031 -5.974319935
rhand  -7.920061211e-032 -33.2840004 9.303460121
rfingers  -90 -7.125020027 -90
rthumb  -92.93752616 -24.25625642 -97.11982154
rfemur  2.24571991 16.04059982 2.012160063
rtibia  -0 0 63.79769897
rfoot  -5.14881666e-032 -30.98900032 -3.467950106
rtoes  5.373923086 19.29304026 -105.8922705
lfemur  -28.15920067 12.59500027 -21.2928009
ltibia  -0 0 65.48300171
lfoot  4.628874142e-032 -17.53000069 -3.657880068
ltoes  -4.250644065 -19.5611806 -102.515957
54
root  3.369355389 36.19844332 2.019548979 -12.42401123 -4.341995239 8.242980957
lowerback  11.08040047 0.6271119714 4.745739937
upperback  4.687819958 1.456030011 7.031889915
thorax  -1.371340036 0.7143700123 4.503829956
lowerneck  -2.326179981 1.996629953 -3.344759941
upperneck  11.22729969 3.285569906 -3.563990116
head  4.09623003 1.333019972 -0.4602780044
lclavicle  0 -9.442270133e-015 7.951389973e-016
lhumerus  -0.3682309985 -20.64489937 90.82769775
lradius  2.543971579e-031 -2.448888042e-031 136.0910034
lwrist  -1.059337512e-030 -1.765562519e-031 4.331200123
lhand  -1.496451383e-031 -27.76390076 20.11240005
lfingers  90 7.125020027 -90
lthumb  89.89689403 5.08795885 91.16245106
rclavicle  0 -9.442270133e-015 7.951389973e-016
rhumerus  11.90209961 24.60860062 -84.13710022
rradius  -2.618397139e-031 2.369143402e-031 137.8609924
rwrist  7.062250077e-031 -0 -5.970640182
rhand  -7.920061211e-032 -33.2840004 9.303460121
rfingers  -90 -7.125020027 -90
rthumb  -92.93752616 -24.25625642 -97.11982154
rfemur  1.207949996 16.25300026 1.797109962
rtibia  -0 0 62.8757019
rfoot  -5.113010245e-032 -30.31430054 -3.235500097
rtoes  5.373923086 19.29304026 -105.8922705
lfemur  -27.92690086 12.2833004 -20.94009972
ltibia  -0 0 64.44889832
lfoot  4.625388773e-032 -17.39279938 -2.491580009
ltoes  -4.250644065 -19.5611806 -102.515957
